<?xml version="1.0" encoding="UTF-8"?>
<svg id="Layer_1" data-name="Layer 1" xmlns="http://www.w3.org/2000/svg" xmlns:xlink="http://www.w3.org/1999/xlink" viewBox="0 0 864.99 111.11">
  <defs>
    <style>
      .cls-1 {
        fill: url(#Unbenannter_Verlauf_3-3);
      }

      .cls-2 {
        fill: url(#Unbenannter_Verlauf_3-2);
      }

      .cls-3 {
        fill: url(#Unbenannter_Verlauf_3);
      }
    </style>
    <linearGradient id="Unbenannter_Verlauf_3" data-name="Unbenannter Verlauf 3" x1="0" y1="50" x2="82.02" y2="50" gradientUnits="userSpaceOnUse">
      <stop offset="0" stop-color="#f50"/>
      <stop offset=".41" stop-color="#f50"/>
      <stop offset=".58" stop-color="#ff2000"/>
      <stop offset="1" stop-color="#ff2000"/>
    </linearGradient>
    <linearGradient id="Unbenannter_Verlauf_3-2" data-name="Unbenannter Verlauf 3" x1="71.15" y1="39.92" x2="82.02" y2="39.92" xlink:href="#Unbenannter_Verlauf_3"/>
    <linearGradient id="Unbenannter_Verlauf_3-3" data-name="Unbenannter Verlauf 3" x1="21.81" y1="46.99" y2="46.99" xlink:href="#Unbenannter_Verlauf_3"/>
  </defs>
  <g>
    <path d="m124.22,88.88V11.11h12v77.78h-12Z"/>
    <path d="m150,88.88v-54.78h11.22v8.22h1.78c1.04-2.22,2.89-4.3,5.56-6.22,2.67-1.93,6.63-2.89,11.89-2.89,4.15,0,7.83.93,11.06,2.78,3.22,1.85,5.76,4.46,7.61,7.83,1.85,3.37,2.78,7.43,2.78,12.17v32.89h-11.44v-32c0-4.74-1.19-8.24-3.56-10.5-2.37-2.26-5.63-3.39-9.78-3.39-4.74,0-8.54,1.56-11.39,4.67-2.85,3.11-4.28,7.63-4.28,13.56v27.67h-11.44Z"/>
    <path d="m234.56,88.88c-3.33,0-5.98-1-7.95-3-1.96-2-2.94-4.67-2.94-8v-34.11h-15.11v-9.67h15.11V16h11.44v18.11h16.33v9.67h-16.33v32.11c0,2.22,1.04,3.33,3.11,3.33h11.44v9.67h-15.11Z"/>
    <path d="m285.22,90.44c-5.56,0-10.41-1.17-14.56-3.5-4.15-2.33-7.39-5.63-9.72-9.89-2.33-4.26-3.5-9.2-3.5-14.83v-1.33c0-5.7,1.15-10.68,3.44-14.94,2.29-4.26,5.5-7.56,9.61-9.89,4.11-2.33,8.87-3.5,14.28-3.5s9.87,1.17,13.83,3.5c3.96,2.33,7.06,5.57,9.28,9.72,2.22,4.15,3.33,9,3.33,14.55v4.33h-42.11c.15,4.82,1.76,8.65,4.83,11.5,3.07,2.85,6.91,4.28,11.5,4.28,4.3,0,7.54-.96,9.72-2.89,2.18-1.93,3.87-4.15,5.06-6.67l9.44,4.89c-1.04,2.07-2.54,4.26-4.5,6.56-1.96,2.3-4.54,4.22-7.72,5.78-3.19,1.56-7.26,2.33-12.22,2.33Zm-16-34.56h30.33c-.3-4.15-1.78-7.39-4.44-9.72-2.67-2.33-6.15-3.5-10.44-3.5s-7.8,1.17-10.5,3.5c-2.7,2.33-4.35,5.57-4.94,9.72Z"/>
    <path d="m319.56,61.77v-1.67c0-5.78,1.17-10.7,3.5-14.78,2.33-4.07,5.43-7.22,9.28-9.44,3.85-2.22,8.07-3.33,12.67-3.33,5.33,0,9.43,1,12.28,3,2.85,2,4.94,4.15,6.28,6.44h1.78v-7.89h11.11v66c0,3.33-.98,6-2.94,8-1.96,2-4.65,3-8.06,3h-36.89v-10h33.33c2.15,0,3.22-1.11,3.22-3.33v-17.44h-1.78c-.82,1.33-1.96,2.7-3.44,4.11-1.48,1.41-3.43,2.56-5.83,3.44-2.41.89-5.43,1.33-9.06,1.33-4.59,0-8.83-1.09-12.72-3.28-3.89-2.18-6.98-5.33-9.28-9.44-2.3-4.11-3.44-9.02-3.44-14.72Zm28.55,17.44c4.96,0,9.06-1.57,12.28-4.72,3.22-3.15,4.83-7.5,4.83-13.06v-1c0-5.7-1.59-10.09-4.78-13.17-3.19-3.07-7.3-4.61-12.33-4.61s-8.94,1.54-12.17,4.61c-3.22,3.08-4.83,7.46-4.83,13.17v1c0,5.56,1.61,9.91,4.83,13.06,3.22,3.15,7.28,4.72,12.17,4.72Z"/>
    <path d="m390.55,88.88v-54.78h11.22v6.44h1.78c.89-2.3,2.31-3.98,4.28-5.06,1.96-1.07,4.39-1.61,7.28-1.61h6.56v10.33h-7c-3.7,0-6.74,1.02-9.11,3.06-2.37,2.04-3.56,5.17-3.56,9.39v32.22h-11.44Z"/>
    <path d="m430.78,88.88v-54.78h11.44v54.78h-11.44Z"/>
    <path d="m477,88.88c-3.33,0-5.98-1-7.95-3-1.96-2-2.94-4.67-2.94-8v-34.11h-15.11v-9.67h15.11V16h11.44v18.11h16.33v9.67h-16.33v32.11c0,2.22,1.04,3.33,3.11,3.33h11.44v9.67h-15.11Z"/>
    <path d="m510.89,111.11v-10h30.56c2.07,0,3.11-1.11,3.11-3.33v-16.89h-1.78c-.67,1.48-1.69,2.91-3.06,4.28-1.37,1.37-3.2,2.5-5.5,3.39-2.3.89-5.19,1.33-8.67,1.33-4.15,0-7.85-.93-11.11-2.78-3.26-1.85-5.82-4.48-7.67-7.89-1.85-3.41-2.78-7.44-2.78-12.11v-33h11.44v32.11c0,4.74,1.18,8.24,3.56,10.5,2.37,2.26,5.67,3.39,9.89,3.39,4.67,0,8.43-1.56,11.28-4.67,2.85-3.11,4.28-7.63,4.28-13.56v-27.78h11.44v66c0,3.33-.98,6-2.95,8-1.96,2-4.65,3-8.06,3h-34Z"/>
    <path d="m570,111.11V34.11h11.22v7.89h1.78c1.41-2.44,3.54-4.63,6.39-6.56,2.85-1.93,6.94-2.89,12.28-2.89,4.59,0,8.8,1.11,12.61,3.33,3.81,2.22,6.89,5.43,9.22,9.61,2.33,4.19,3.5,9.24,3.5,15.17v1.67c0,5.93-1.15,10.98-3.44,15.17-2.3,4.19-5.37,7.39-9.22,9.61-3.85,2.22-8.07,3.33-12.67,3.33-3.56,0-6.56-.44-9-1.33-2.44-.89-4.41-2.02-5.89-3.39-1.48-1.37-2.67-2.8-3.56-4.28h-1.78v29.67h-11.44Zm28.33-30.67c5.04,0,9.15-1.59,12.33-4.78s4.78-7.74,4.78-13.67v-1c0-5.85-1.61-10.37-4.83-13.56-3.22-3.18-7.32-4.78-12.28-4.78s-8.94,1.59-12.17,4.78c-3.22,3.19-4.83,7.71-4.83,13.56v1c0,5.93,1.61,10.48,4.83,13.67,3.22,3.19,7.28,4.78,12.17,4.78Z"/>
    <path d="m664.11,90.44c-5.48,0-10.35-1.13-14.61-3.39-4.26-2.26-7.61-5.5-10.06-9.72-2.44-4.22-3.67-9.22-3.67-15v-1.67c0-5.78,1.22-10.76,3.67-14.94,2.44-4.18,5.8-7.43,10.06-9.72,4.26-2.3,9.13-3.44,14.61-3.44s10.37,1.15,14.67,3.44c4.29,2.3,7.67,5.54,10.11,9.72,2.44,4.19,3.67,9.17,3.67,14.94v1.67c0,5.78-1.22,10.78-3.67,15-2.44,4.22-5.82,7.46-10.11,9.72-4.3,2.26-9.19,3.39-14.67,3.39Zm0-10.22c5.04,0,9.13-1.61,12.28-4.83,3.15-3.22,4.72-7.68,4.72-13.39v-1c0-5.7-1.56-10.17-4.67-13.39-3.11-3.22-7.22-4.83-12.33-4.83s-9.02,1.61-12.17,4.83c-3.15,3.22-4.72,7.69-4.72,13.39v1c0,5.71,1.57,10.17,4.72,13.39,3.15,3.22,7.2,4.83,12.17,4.83Z"/>
    <path d="m703.99,88.88v-54.78h11.22v6.44h1.78c.89-2.3,2.31-3.98,4.28-5.06,1.96-1.07,4.39-1.61,7.28-1.61h6.56v10.33h-7c-3.7,0-6.74,1.02-9.11,3.06-2.37,2.04-3.55,5.17-3.55,9.39v32.22h-11.44Z"/>
    <path d="m764.77,88.88c-3.33,0-5.98-1-7.94-3-1.96-2-2.95-4.67-2.95-8v-34.11h-15.11v-9.67h15.11V16h11.44v18.11h16.33v9.67h-16.33v32.11c0,2.22,1.04,3.33,3.11,3.33h11.44v9.67h-15.11Z"/>
    <path d="m809.22,90.44c-3.93,0-7.43-.67-10.5-2s-5.52-3.29-7.33-5.89c-1.82-2.59-2.72-5.74-2.72-9.44s.91-6.91,2.72-9.39c1.81-2.48,4.3-4.35,7.44-5.61,3.15-1.26,6.72-1.89,10.72-1.89h16.67v-3.56c0-3.18-.96-5.74-2.89-7.67-1.93-1.93-4.89-2.89-8.89-2.89s-6.93.93-9,2.78c-2.08,1.85-3.45,4.26-4.11,7.22l-10.67-3.44c.89-2.96,2.31-5.65,4.28-8.06,1.96-2.41,4.57-4.35,7.83-5.83,3.26-1.48,7.18-2.22,11.78-2.22,7.11,0,12.7,1.82,16.78,5.44,4.07,3.63,6.11,8.78,6.11,15.44v22.56c0,2.22,1.04,3.33,3.11,3.33h4.67v9.56h-8.56c-2.59,0-4.7-.67-6.33-2-1.63-1.33-2.44-3.15-2.44-5.44v-.33h-1.67c-.59,1.11-1.48,2.41-2.67,3.89-1.19,1.48-2.93,2.76-5.22,3.83-2.3,1.07-5.33,1.61-9.11,1.61Zm1.67-9.44c4.59,0,8.29-1.31,11.11-3.94,2.81-2.63,4.22-6.24,4.22-10.83v-1.11h-16c-3.04,0-5.48.65-7.33,1.94-1.85,1.3-2.78,3.2-2.78,5.72s.96,4.52,2.89,6c1.93,1.48,4.55,2.22,7.89,2.22Z"/>
    <path d="m853.55,88.88V11.11h11.44v77.78h-11.44Z"/>
  </g>
  <g>
    <path class="cls-3" d="m71.15,24.17v33.24c0,7.98-4.31,15.39-11.24,19.33l-18.89,10.74-18.89-10.74c-6.93-3.95-11.24-11.35-11.24-19.33V23.92l30.14-12.29,18.9,7.85,8.43-8.43L41.01,0,0,16.42v40.99c0,11.88,6.42,22.91,16.74,28.78l24.27,13.8,24.27-13.8c10.33-5.87,16.74-16.9,16.74-28.78v-28.74l-10.87-4.51h0Z"/>
    <rect class="cls-2" x="71.15" y="28.68" width="10.87" height="22.49"/>
    <polygon class="cls-1" points="71.15 24.17 82.02 28.68 40.88 69.82 21.81 50.75 29.5 43.06 40.88 54.44 71.15 24.17"/>
  </g>
</svg>